<svg xmlns="http://www.w3.org/2000/svg" xmlns:xlink="http://www.w3.org/1999/xlink" viewBox="0 0 257.81 64.77"><defs><style>.cls-1{fill:#f04c55;}.cls-2{fill:url(#linear-gradient);}.cls-3{fill:url(#linear-gradient-2);}</style><linearGradient id="linear-gradient" x1="-1541.34" y1="123.32" x2="-1540.34" y2="123.32" gradientTransform="matrix(65.4, 0, 0, -65.4, 100814.93, 8089.85)" gradientUnits="userSpaceOnUse"><stop offset="0" stop-color="#f04c55"/><stop offset="1" stop-color="#f04c55"/></linearGradient><linearGradient id="linear-gradient-2" x1="-1518.31" y1="121.55" x2="-1517.31" y2="121.55" gradientTransform="matrix(31.91, 0, 0, -31.91, 48451.38, 3907.82)" gradientUnits="userSpaceOnUse"><stop offset="0" stop-color="#f04c55"/><stop offset="1" stop-color="#cc3241"/></linearGradient></defs><title>logo_red</title><g id="Layer_2" data-name="Layer 2"><g id="logo_refined"><g id="red"><path class="cls-1" d="M75.3,32.75h-3l-.22-.9L80.61,21h1v6.85h5.49a9.37,9.37,0,0,1,.18,1.23c0,.36.05.74.05,1.13s0,.83-.05,1.23a10.19,10.19,0,0,1-.18,1.31H81.65V42a9.21,9.21,0,0,0,.23,2.27,3.26,3.26,0,0,0,.66,1.36,2.12,2.12,0,0,0,1.06.68,5.61,5.61,0,0,0,1.5.18,7.42,7.42,0,0,0,1.34-.11l1.16-.2a8.86,8.86,0,0,1,.45,1.79,11.7,11.7,0,0,1,.14,1.65q0,.51,0,.84t-.06.66a18.68,18.68,0,0,1-4.31.5q-4.14,0-6.31-1.93C76,48.37,75.3,46.27,75.3,43.37Z"/><path class="cls-1" d="M91.13,27.85c.46-.09.89-.15,1.3-.2a11.08,11.08,0,0,1,1.34-.07,9.94,9.94,0,0,1,1.34.09c.43.06.86.14,1.29.23a2.78,2.78,0,0,1,.25.66c.07.28.14.59.2.9s.11.64.16,1,.08.58.11.79a11.92,11.92,0,0,1,2.45-2.52,5.81,5.81,0,0,1,3.63-1.11c.3,0,.65,0,1,.05a4,4,0,0,1,.86.13,9.11,9.11,0,0,1,.13,1c0,.39.05.8.05,1.22s0,1.08-.07,1.68a11.29,11.29,0,0,1-.25,1.72,6.23,6.23,0,0,0-1.11-.09h-.75a11.23,11.23,0,0,0-1.72.16,4.07,4.07,0,0,0-1.82.84,5.12,5.12,0,0,0-1.43,2,10.42,10.42,0,0,0-.56,3.81V51.35a13.08,13.08,0,0,1-1.64.19c-.54,0-1.07,0-1.58,0s-1,0-1.57,0a14.57,14.57,0,0,1-1.66-.19Z"/><path class="cls-1" d="M108.06,27.85a19.34,19.34,0,0,1,6.44,0V40.29a12.93,12.93,0,0,0,.3,3.06,4.37,4.37,0,0,0,.9,1.9,3.41,3.41,0,0,0,1.52,1,6.87,6.87,0,0,0,2.14.3,10.71,10.71,0,0,0,2.81-.32V27.85a19.39,19.39,0,0,1,3.17-.27,19.62,19.62,0,0,1,3.22.27V50.4a29.32,29.32,0,0,1-3.83,1,25.1,25.1,0,0,1-5,.47,26.61,26.61,0,0,1-4.44-.36A8.65,8.65,0,0,1,111.57,50,8,8,0,0,1,109,46.5a15.73,15.73,0,0,1-1-6Z"/><path class="cls-1" d="M138.63,41.55a5,5,0,0,0,1.91,4,7.65,7.65,0,0,0,4.54,1.23,17.12,17.12,0,0,0,3.15-.3,16.59,16.59,0,0,0,3.06-.84,10.65,10.65,0,0,1,.86,2.18,10.82,10.82,0,0,1,.41,2.72,22,22,0,0,1-8,1.36A15.54,15.54,0,0,1,139,51a9.6,9.6,0,0,1-6-6.35,16.73,16.73,0,0,1,0-9.71,11.27,11.27,0,0,1,2.15-3.95,10.46,10.46,0,0,1,3.54-2.66,11.66,11.66,0,0,1,4.93-1,10.52,10.52,0,0,1,4.35.86,9.61,9.61,0,0,1,3.24,2.36,9.83,9.83,0,0,1,2,3.56,13.89,13.89,0,0,1,.69,4.43c0,.57,0,1.14-.07,1.7s-.1,1-.16,1.33Zm9.21-4.49a5.7,5.7,0,0,0-1.2-3.51,3.81,3.81,0,0,0-3.1-1.34,4.45,4.45,0,0,0-3.45,1.27,5.94,5.94,0,0,0-1.41,3.58Z"/><path class="cls-1" d="M158.1,27.85c.42-.09.85-.15,1.27-.2a12,12,0,0,1,1.4-.07,11.15,11.15,0,0,1,1.37.07c.39.05.8.11,1.22.2a3,3,0,0,1,.25.66c.08.29.14.59.2.91s.12.63.16.93.09.56.12.77a7.47,7.47,0,0,1,.95-1.36,6.74,6.74,0,0,1,1.41-1.22,7.41,7.41,0,0,1,1.83-.89,7.17,7.17,0,0,1,2.3-.34c3.65,0,6,1.39,7,4.17a9,9,0,0,1,2.56-2.92,6.78,6.78,0,0,1,4.2-1.25q4,0,5.87,2.2c1.26,1.47,1.88,3.76,1.88,6.87V51.31a19.34,19.34,0,0,1-6.44,0V38.06a9.12,9.12,0,0,0-.61-3.76A2.45,2.45,0,0,0,182.6,33a5.23,5.23,0,0,0-1.52.23,3.16,3.16,0,0,0-1.36.84,4.37,4.37,0,0,0-1,1.72,8.86,8.86,0,0,0-.39,2.88V51.31a19.34,19.34,0,0,1-6.44,0V38.06a9.12,9.12,0,0,0-.61-3.76A2.45,2.45,0,0,0,168.8,33a5.53,5.53,0,0,0-1.54.23,3,3,0,0,0-1.38.88,4.76,4.76,0,0,0-1,1.84,10.83,10.83,0,0,0-.36,3.08v12.3a19.34,19.34,0,0,1-6.44,0Z"/><path class="cls-1" d="M208.77,35.88a3.82,3.82,0,0,0-.36-1.77,2.69,2.69,0,0,0-1-1.06,4.1,4.1,0,0,0-1.56-.52,14.44,14.44,0,0,0-2.07-.14,16.24,16.24,0,0,0-5.22,1,12,12,0,0,1-.95-2.22,8.73,8.73,0,0,1-.32-2.5,24.59,24.59,0,0,1,4-1,24,24,0,0,1,3.72-.32,11,11,0,0,1,7.37,2.27Q215,31.85,215,36.84V50.45a38.05,38.05,0,0,1-3.85.95,26.54,26.54,0,0,1-5.13.45,20.64,20.64,0,0,1-4.24-.4,9.09,9.09,0,0,1-3.31-1.37,6.32,6.32,0,0,1-2.14-2.45,8.25,8.25,0,0,1-.74-3.67,6.71,6.71,0,0,1,.93-3.65A7.13,7.13,0,0,1,199,38a10.68,10.68,0,0,1,3.29-1.27,17.23,17.23,0,0,1,3.63-.39c.88,0,1.84.05,2.9.14Zm0,4.68c-.36-.06-.75-.12-1.18-.16a9.61,9.61,0,0,0-1.13-.07,6.7,6.7,0,0,0-3.52.79,2.79,2.79,0,0,0-1.29,2.57,2.69,2.69,0,0,0,1.7,2.74,4.71,4.71,0,0,0,1.5.36c.53.05,1,.07,1.38.07a7.8,7.8,0,0,0,1.36-.11l1.18-.2Z"/><path class="cls-1" d="M219.84,27.85c.46-.09.89-.15,1.3-.2a10.91,10.91,0,0,1,1.33-.07,9.83,9.83,0,0,1,1.34.09c.44.06.87.14,1.29.23a2.12,2.12,0,0,1,.25.66c.08.28.15.59.21.9s.11.64.16,1,.08.58.11.79a11.68,11.68,0,0,1,2.45-2.52,5.81,5.81,0,0,1,3.63-1.11c.3,0,.65,0,1,.05a4.13,4.13,0,0,1,.87.13,9.11,9.11,0,0,1,.13,1c0,.39.05.8.05,1.22s0,1.08-.07,1.68a12.7,12.7,0,0,1-.25,1.72,6.23,6.23,0,0,0-1.11-.09h-.75a11.46,11.46,0,0,0-1.73.16,4,4,0,0,0-1.81.84,5.12,5.12,0,0,0-1.43,2,10.18,10.18,0,0,0-.57,3.81V51.35a12.71,12.71,0,0,1-1.63.19c-.54,0-1.07,0-1.59,0s-1,0-1.56,0a14.57,14.57,0,0,1-1.66-.19Z"/><path class="cls-1" d="M236.76,18.15a17.5,17.5,0,0,1,3.18-.28,18.18,18.18,0,0,1,3.22.28V51.31a19.17,19.17,0,0,1-3.22.27,18.44,18.44,0,0,1-3.18-.27ZM244.07,39l5.81-11.16a23.67,23.67,0,0,1,3.58-.27,20.59,20.59,0,0,1,3.36.27l-6,10.85,7,12.61a24.9,24.9,0,0,1-3.58.27,22.32,22.32,0,0,1-3.36-.27Z"/><path class="cls-2" d="M31.91,32l-7.46,5.15c-.19.12-.36.26-.55.38a6.48,6.48,0,0,1-2.74,1.07,5.64,5.64,0,0,1-1.08.1,6.74,6.74,0,0,1-4.72-1.91L19,40.47l.27.27,7.94,7.94a4.68,4.68,0,0,0,3.34,1.38,4.74,4.74,0,0,0,3.26-1.31L80.3,2.29a1.42,1.42,0,0,0,.36-.93h0A1.37,1.37,0,0,0,79.28,0a1.43,1.43,0,0,0-.76.21Z"/><path class="cls-3" d="M23.9,37.54c.19-.12.36-.26.55-.38L31.91,32h0a3.31,3.31,0,0,1-1.33.47h-.29a2.91,2.91,0,0,1-1.1-.21c-.09-.05-.19-.07-.26-.12L28.65,32l-1.75-.81v0L16.22,26.26,1.91,19.6a1.37,1.37,0,0,0-.53-.12A1.37,1.37,0,0,0,0,20.87a1.26,1.26,0,0,0,.36.93l.07.09L15.26,36.7a6.76,6.76,0,0,0,4.82,2,5.64,5.64,0,0,0,1.08-.1A6.48,6.48,0,0,0,23.9,37.54Z"/><path class="cls-1" d="M58.21,28.1l-1.05,1a26.29,26.29,0,0,1,1.16,7.73,26.58,26.58,0,1,1-53.15,0A25.83,25.83,0,0,1,5.83,31L4.74,29.91a27.89,27.89,0,1,0,54.89,7,27.69,27.69,0,0,0-1.42-8.77M31.74,10.3A26.39,26.39,0,0,1,49.31,17l1.12-.76a27.83,27.83,0,0,0-41,4l1.23.57A26.46,26.46,0,0,1,31.74,10.3"/></g></g></g></svg>